<mxfile host="app.diagrams.net" modified="2020-06-18T04:16:24.742Z" agent="5.0 (Windows NT 10.0; Win64; x64) AppleWebKit/537.36 (KHTML, like Gecko) Chrome/83.0.4103.97 Safari/537.36" etag="eEknMi8fusKpyKbtvKPA" version="13.2.6" type="github">
  <diagram id="GmI4eg5Vj9IhphaG-CfB" name="Page-1">
    <mxGraphModel dx="1422" dy="794" grid="1" gridSize="10" guides="1" tooltips="1" connect="1" arrows="1" fold="1" page="1" pageScale="1" pageWidth="827" pageHeight="1169" math="0" shadow="0">
      <root>
        <mxCell id="0" />
        <mxCell id="1" parent="0" />
        <mxCell id="dw9jjnBZyIxeGPxxYRrR-5" value="Controller" style="shape=umlLifeline;perimeter=lifelinePerimeter;whiteSpace=wrap;html=1;container=1;collapsible=0;recursiveResize=0;outlineConnect=0;" parent="1" vertex="1">
          <mxGeometry x="124" y="80" width="100" height="550" as="geometry" />
        </mxCell>
        <mxCell id="dw9jjnBZyIxeGPxxYRrR-6" value="Service" style="shape=umlLifeline;perimeter=lifelinePerimeter;whiteSpace=wrap;html=1;container=1;collapsible=0;recursiveResize=0;outlineConnect=0;" parent="1" vertex="1">
          <mxGeometry x="364" y="80" width="100" height="550" as="geometry" />
        </mxCell>
        <mxCell id="dw9jjnBZyIxeGPxxYRrR-7" value="Dao" style="shape=umlLifeline;perimeter=lifelinePerimeter;whiteSpace=wrap;html=1;container=1;collapsible=0;recursiveResize=0;outlineConnect=0;" parent="1" vertex="1">
          <mxGeometry x="604" y="80" width="100" height="550" as="geometry" />
        </mxCell>
        <mxCell id="V--YnVg1bQpoPxI7jUqb-61" value="" style="html=1;points=[];perimeter=orthogonalPerimeter;" parent="dw9jjnBZyIxeGPxxYRrR-7" vertex="1">
          <mxGeometry x="-435" y="66" width="10" height="97" as="geometry" />
        </mxCell>
        <mxCell id="V--YnVg1bQpoPxI7jUqb-63" value="" style="html=1;points=[];perimeter=orthogonalPerimeter;" parent="dw9jjnBZyIxeGPxxYRrR-7" vertex="1">
          <mxGeometry x="45" y="68" width="10" height="40" as="geometry" />
        </mxCell>
        <mxCell id="V--YnVg1bQpoPxI7jUqb-64" value="getProgressPaging(req)" style="html=1;verticalAlign=bottom;endArrow=block;" parent="dw9jjnBZyIxeGPxxYRrR-7" edge="1">
          <mxGeometry x="-0.0578" width="80" relative="1" as="geometry">
            <mxPoint x="-424" y="78" as="sourcePoint" />
            <mxPoint x="-194" y="78" as="targetPoint" />
            <mxPoint as="offset" />
          </mxGeometry>
        </mxCell>
        <mxCell id="V--YnVg1bQpoPxI7jUqb-65" value="selectProgressCntAll()" style="html=1;verticalAlign=bottom;endArrow=block;" parent="dw9jjnBZyIxeGPxxYRrR-7" edge="1">
          <mxGeometry x="-0.0578" width="80" relative="1" as="geometry">
            <mxPoint x="-184" y="78" as="sourcePoint" />
            <mxPoint x="46" y="78" as="targetPoint" />
            <mxPoint as="offset" />
          </mxGeometry>
        </mxCell>
        <mxCell id="V--YnVg1bQpoPxI7jUqb-67" value="" style="html=1;points=[];perimeter=orthogonalPerimeter;" parent="dw9jjnBZyIxeGPxxYRrR-7" vertex="1">
          <mxGeometry x="45" y="123" width="10" height="40" as="geometry" />
        </mxCell>
        <mxCell id="V--YnVg1bQpoPxI7jUqb-68" value="selectProgressSearch(search, paging)" style="html=1;verticalAlign=bottom;endArrow=block;" parent="dw9jjnBZyIxeGPxxYRrR-7" edge="1">
          <mxGeometry x="-0.0578" width="80" relative="1" as="geometry">
            <mxPoint x="-184" y="133" as="sourcePoint" />
            <mxPoint x="46" y="133" as="targetPoint" />
            <mxPoint as="offset" />
          </mxGeometry>
        </mxCell>
        <mxCell id="V--YnVg1bQpoPxI7jUqb-69" value="List&amp;lt;Document&amp;gt;" style="html=1;verticalAlign=bottom;endArrow=block;" parent="dw9jjnBZyIxeGPxxYRrR-7" edge="1">
          <mxGeometry x="0.0261" width="80" relative="1" as="geometry">
            <mxPoint x="45" y="152" as="sourcePoint" />
            <mxPoint x="-185" y="152" as="targetPoint" />
            <mxPoint as="offset" />
          </mxGeometry>
        </mxCell>
        <mxCell id="V--YnVg1bQpoPxI7jUqb-70" value="List&amp;lt;Document&amp;gt;" style="html=1;verticalAlign=bottom;endArrow=block;" parent="dw9jjnBZyIxeGPxxYRrR-7" edge="1">
          <mxGeometry x="0.0261" width="80" relative="1" as="geometry">
            <mxPoint x="-195" y="153" as="sourcePoint" />
            <mxPoint x="-425" y="153" as="targetPoint" />
            <mxPoint as="offset" />
          </mxGeometry>
        </mxCell>
        <mxCell id="V--YnVg1bQpoPxI7jUqb-71" value="" style="html=1;points=[];perimeter=orthogonalPerimeter;" parent="dw9jjnBZyIxeGPxxYRrR-7" vertex="1">
          <mxGeometry x="-435" y="173" width="10" height="97" as="geometry" />
        </mxCell>
        <mxCell id="V--YnVg1bQpoPxI7jUqb-73" value="" style="html=1;points=[];perimeter=orthogonalPerimeter;" parent="dw9jjnBZyIxeGPxxYRrR-7" vertex="1">
          <mxGeometry x="45" y="175" width="10" height="40" as="geometry" />
        </mxCell>
        <mxCell id="V--YnVg1bQpoPxI7jUqb-74" value="getProgressPaging(req)" style="html=1;verticalAlign=bottom;endArrow=block;" parent="dw9jjnBZyIxeGPxxYRrR-7" edge="1">
          <mxGeometry x="-0.0578" width="80" relative="1" as="geometry">
            <mxPoint x="-424" y="185" as="sourcePoint" />
            <mxPoint x="-194" y="185" as="targetPoint" />
            <mxPoint as="offset" />
          </mxGeometry>
        </mxCell>
        <mxCell id="V--YnVg1bQpoPxI7jUqb-75" value="selectProgressCntAll()" style="html=1;verticalAlign=bottom;endArrow=block;" parent="dw9jjnBZyIxeGPxxYRrR-7" edge="1">
          <mxGeometry x="-0.0578" width="80" relative="1" as="geometry">
            <mxPoint x="-184" y="185" as="sourcePoint" />
            <mxPoint x="46" y="185" as="targetPoint" />
            <mxPoint as="offset" />
          </mxGeometry>
        </mxCell>
        <mxCell id="V--YnVg1bQpoPxI7jUqb-77" value="" style="html=1;points=[];perimeter=orthogonalPerimeter;" parent="dw9jjnBZyIxeGPxxYRrR-7" vertex="1">
          <mxGeometry x="45" y="230" width="10" height="40" as="geometry" />
        </mxCell>
        <mxCell id="V--YnVg1bQpoPxI7jUqb-78" value="selectProgressAll(paging)" style="html=1;verticalAlign=bottom;endArrow=block;" parent="dw9jjnBZyIxeGPxxYRrR-7" edge="1">
          <mxGeometry x="-0.0578" width="80" relative="1" as="geometry">
            <mxPoint x="-184" y="240" as="sourcePoint" />
            <mxPoint x="46" y="240" as="targetPoint" />
            <mxPoint as="offset" />
          </mxGeometry>
        </mxCell>
        <mxCell id="V--YnVg1bQpoPxI7jUqb-79" value="List&amp;lt;Document&amp;gt;" style="html=1;verticalAlign=bottom;endArrow=block;" parent="dw9jjnBZyIxeGPxxYRrR-7" edge="1">
          <mxGeometry x="0.0261" width="80" relative="1" as="geometry">
            <mxPoint x="45" y="259" as="sourcePoint" />
            <mxPoint x="-185" y="259" as="targetPoint" />
            <mxPoint as="offset" />
          </mxGeometry>
        </mxCell>
        <mxCell id="V--YnVg1bQpoPxI7jUqb-80" value="List&amp;lt;Document&amp;gt;" style="html=1;verticalAlign=bottom;endArrow=block;" parent="dw9jjnBZyIxeGPxxYRrR-7" edge="1">
          <mxGeometry x="0.0261" width="80" relative="1" as="geometry">
            <mxPoint x="-195" y="260" as="sourcePoint" />
            <mxPoint x="-425" y="260" as="targetPoint" />
            <mxPoint as="offset" />
          </mxGeometry>
        </mxCell>
        <mxCell id="AzmRYx8aAY5YrTBjNprB-73" value="" style="html=1;points=[];perimeter=orthogonalPerimeter;" parent="1" vertex="1">
          <mxGeometry x="169" y="381" width="10" height="97" as="geometry" />
        </mxCell>
        <mxCell id="AzmRYx8aAY5YrTBjNprB-75" value="" style="html=1;points=[];perimeter=orthogonalPerimeter;" parent="1" vertex="1">
          <mxGeometry x="649" y="383" width="10" height="40" as="geometry" />
        </mxCell>
        <mxCell id="AzmRYx8aAY5YrTBjNprB-76" value="getDraftPaging(req)" style="html=1;verticalAlign=bottom;endArrow=block;" parent="1" edge="1">
          <mxGeometry x="-0.0578" width="80" relative="1" as="geometry">
            <mxPoint x="180" y="393" as="sourcePoint" />
            <mxPoint x="410" y="393" as="targetPoint" />
            <mxPoint as="offset" />
          </mxGeometry>
        </mxCell>
        <mxCell id="AzmRYx8aAY5YrTBjNprB-77" value="selectDraftCntAll()" style="html=1;verticalAlign=bottom;endArrow=block;" parent="1" edge="1">
          <mxGeometry x="-0.0578" width="80" relative="1" as="geometry">
            <mxPoint x="420" y="393" as="sourcePoint" />
            <mxPoint x="650" y="393" as="targetPoint" />
            <mxPoint as="offset" />
          </mxGeometry>
        </mxCell>
        <mxCell id="AzmRYx8aAY5YrTBjNprB-79" value="" style="html=1;points=[];perimeter=orthogonalPerimeter;" parent="1" vertex="1">
          <mxGeometry x="649" y="438" width="10" height="40" as="geometry" />
        </mxCell>
        <mxCell id="AzmRYx8aAY5YrTBjNprB-80" value="selectDraftSearch(search, paging)" style="html=1;verticalAlign=bottom;endArrow=block;" parent="1" edge="1">
          <mxGeometry x="-0.0578" width="80" relative="1" as="geometry">
            <mxPoint x="420" y="448" as="sourcePoint" />
            <mxPoint x="650" y="448" as="targetPoint" />
            <mxPoint as="offset" />
          </mxGeometry>
        </mxCell>
        <mxCell id="AzmRYx8aAY5YrTBjNprB-81" value="List&amp;lt;Document&amp;gt;" style="html=1;verticalAlign=bottom;endArrow=block;" parent="1" edge="1">
          <mxGeometry x="0.0261" width="80" relative="1" as="geometry">
            <mxPoint x="649" y="467" as="sourcePoint" />
            <mxPoint x="419" y="467" as="targetPoint" />
            <mxPoint as="offset" />
          </mxGeometry>
        </mxCell>
        <mxCell id="AzmRYx8aAY5YrTBjNprB-82" value="List&amp;lt;Document&amp;gt;" style="html=1;verticalAlign=bottom;endArrow=block;" parent="1" edge="1">
          <mxGeometry x="0.0261" width="80" relative="1" as="geometry">
            <mxPoint x="409" y="468" as="sourcePoint" />
            <mxPoint x="179" y="468" as="targetPoint" />
            <mxPoint as="offset" />
          </mxGeometry>
        </mxCell>
        <mxCell id="AzmRYx8aAY5YrTBjNprB-83" value="" style="html=1;points=[];perimeter=orthogonalPerimeter;" parent="1" vertex="1">
          <mxGeometry x="169" y="488" width="10" height="97" as="geometry" />
        </mxCell>
        <mxCell id="AzmRYx8aAY5YrTBjNprB-85" value="" style="html=1;points=[];perimeter=orthogonalPerimeter;" parent="1" vertex="1">
          <mxGeometry x="649" y="490" width="10" height="40" as="geometry" />
        </mxCell>
        <mxCell id="AzmRYx8aAY5YrTBjNprB-86" value="getDraftPaging(req)" style="html=1;verticalAlign=bottom;endArrow=block;" parent="1" edge="1">
          <mxGeometry x="-0.0578" width="80" relative="1" as="geometry">
            <mxPoint x="180" y="500" as="sourcePoint" />
            <mxPoint x="410" y="500" as="targetPoint" />
            <mxPoint as="offset" />
          </mxGeometry>
        </mxCell>
        <mxCell id="AzmRYx8aAY5YrTBjNprB-87" value="selectDraftCntAll()" style="html=1;verticalAlign=bottom;endArrow=block;" parent="1" edge="1">
          <mxGeometry x="-0.0578" width="80" relative="1" as="geometry">
            <mxPoint x="420" y="500" as="sourcePoint" />
            <mxPoint x="650" y="500" as="targetPoint" />
            <mxPoint as="offset" />
          </mxGeometry>
        </mxCell>
        <mxCell id="AzmRYx8aAY5YrTBjNprB-89" value="" style="html=1;points=[];perimeter=orthogonalPerimeter;" parent="1" vertex="1">
          <mxGeometry x="649" y="545" width="10" height="40" as="geometry" />
        </mxCell>
        <mxCell id="AzmRYx8aAY5YrTBjNprB-90" value="selectDraftAll(paging)" style="html=1;verticalAlign=bottom;endArrow=block;" parent="1" edge="1">
          <mxGeometry x="-0.0578" width="80" relative="1" as="geometry">
            <mxPoint x="420" y="555" as="sourcePoint" />
            <mxPoint x="650" y="555" as="targetPoint" />
            <mxPoint as="offset" />
          </mxGeometry>
        </mxCell>
        <mxCell id="AzmRYx8aAY5YrTBjNprB-91" value="List&amp;lt;Document&amp;gt;" style="html=1;verticalAlign=bottom;endArrow=block;" parent="1" edge="1">
          <mxGeometry x="0.0261" width="80" relative="1" as="geometry">
            <mxPoint x="649" y="574" as="sourcePoint" />
            <mxPoint x="419" y="574" as="targetPoint" />
            <mxPoint as="offset" />
          </mxGeometry>
        </mxCell>
        <mxCell id="AzmRYx8aAY5YrTBjNprB-92" value="List&amp;lt;Document&amp;gt;" style="html=1;verticalAlign=bottom;endArrow=block;" parent="1" edge="1">
          <mxGeometry x="0.0261" width="80" relative="1" as="geometry">
            <mxPoint x="409" y="575" as="sourcePoint" />
            <mxPoint x="179" y="575" as="targetPoint" />
            <mxPoint as="offset" />
          </mxGeometry>
        </mxCell>
        <mxCell id="q6Or9opQEkFWkcZ5Y_8q-2" value="getListProgressPaging(req, paging))" style="html=1;verticalAlign=bottom;endArrow=block;" edge="1" parent="1">
          <mxGeometry x="-0.0578" width="80" relative="1" as="geometry">
            <mxPoint x="179" y="210" as="sourcePoint" />
            <mxPoint x="409" y="210" as="targetPoint" />
            <mxPoint as="offset" />
          </mxGeometry>
        </mxCell>
        <mxCell id="q6Or9opQEkFWkcZ5Y_8q-4" value="getListProgressPaging(req, paging))" style="html=1;verticalAlign=bottom;endArrow=block;" edge="1" parent="1">
          <mxGeometry x="-0.0578" width="80" relative="1" as="geometry">
            <mxPoint x="178" y="318" as="sourcePoint" />
            <mxPoint x="408" y="318" as="targetPoint" />
            <mxPoint as="offset" />
          </mxGeometry>
        </mxCell>
        <mxCell id="q6Or9opQEkFWkcZ5Y_8q-6" value="getListDraftPaging(req, paging))" style="html=1;verticalAlign=bottom;endArrow=block;" edge="1" parent="1">
          <mxGeometry x="-0.0578" width="80" relative="1" as="geometry">
            <mxPoint x="178" y="448" as="sourcePoint" />
            <mxPoint x="408" y="448" as="targetPoint" />
            <mxPoint as="offset" />
          </mxGeometry>
        </mxCell>
        <mxCell id="q6Or9opQEkFWkcZ5Y_8q-8" value="getListDraftPaging(req, paging))" style="html=1;verticalAlign=bottom;endArrow=block;" edge="1" parent="1">
          <mxGeometry x="-0.0578" width="80" relative="1" as="geometry">
            <mxPoint x="177" y="556" as="sourcePoint" />
            <mxPoint x="407" y="556" as="targetPoint" />
            <mxPoint as="offset" />
          </mxGeometry>
        </mxCell>
        <mxCell id="q6Or9opQEkFWkcZ5Y_8q-9" value="" style="html=1;points=[];perimeter=orthogonalPerimeter;" vertex="1" parent="1">
          <mxGeometry x="409" y="146" width="10" height="40" as="geometry" />
        </mxCell>
        <mxCell id="q6Or9opQEkFWkcZ5Y_8q-10" value="" style="html=1;points=[];perimeter=orthogonalPerimeter;" vertex="1" parent="1">
          <mxGeometry x="409" y="201" width="10" height="40" as="geometry" />
        </mxCell>
        <mxCell id="q6Or9opQEkFWkcZ5Y_8q-11" value="" style="html=1;points=[];perimeter=orthogonalPerimeter;" vertex="1" parent="1">
          <mxGeometry x="409" y="253" width="10" height="40" as="geometry" />
        </mxCell>
        <mxCell id="q6Or9opQEkFWkcZ5Y_8q-12" value="" style="html=1;points=[];perimeter=orthogonalPerimeter;" vertex="1" parent="1">
          <mxGeometry x="409" y="308" width="10" height="40" as="geometry" />
        </mxCell>
        <mxCell id="q6Or9opQEkFWkcZ5Y_8q-13" value="" style="html=1;points=[];perimeter=orthogonalPerimeter;" vertex="1" parent="1">
          <mxGeometry x="409" y="381" width="10" height="40" as="geometry" />
        </mxCell>
        <mxCell id="q6Or9opQEkFWkcZ5Y_8q-14" value="" style="html=1;points=[];perimeter=orthogonalPerimeter;" vertex="1" parent="1">
          <mxGeometry x="409" y="436" width="10" height="40" as="geometry" />
        </mxCell>
        <mxCell id="q6Or9opQEkFWkcZ5Y_8q-15" value="" style="html=1;points=[];perimeter=orthogonalPerimeter;" vertex="1" parent="1">
          <mxGeometry x="409" y="488" width="10" height="40" as="geometry" />
        </mxCell>
        <mxCell id="q6Or9opQEkFWkcZ5Y_8q-16" value="" style="html=1;points=[];perimeter=orthogonalPerimeter;" vertex="1" parent="1">
          <mxGeometry x="409" y="543" width="10" height="40" as="geometry" />
        </mxCell>
        <mxCell id="q6Or9opQEkFWkcZ5Y_8q-17" value="paging" style="html=1;verticalAlign=bottom;endArrow=block;" edge="1" parent="1">
          <mxGeometry x="0.0348" y="-3" width="80" relative="1" as="geometry">
            <mxPoint x="649" y="180" as="sourcePoint" />
            <mxPoint x="419" y="180" as="targetPoint" />
            <mxPoint as="offset" />
          </mxGeometry>
        </mxCell>
        <mxCell id="q6Or9opQEkFWkcZ5Y_8q-18" value="paging" style="html=1;verticalAlign=bottom;endArrow=block;" edge="1" parent="1">
          <mxGeometry x="0.0348" y="-3" width="80" relative="1" as="geometry">
            <mxPoint x="409" y="180" as="sourcePoint" />
            <mxPoint x="179" y="180" as="targetPoint" />
            <mxPoint as="offset" />
          </mxGeometry>
        </mxCell>
        <mxCell id="q6Or9opQEkFWkcZ5Y_8q-19" value="paging" style="html=1;verticalAlign=bottom;endArrow=block;" edge="1" parent="1">
          <mxGeometry x="0.0348" y="-3" width="80" relative="1" as="geometry">
            <mxPoint x="649" y="286" as="sourcePoint" />
            <mxPoint x="419" y="286" as="targetPoint" />
            <mxPoint as="offset" />
          </mxGeometry>
        </mxCell>
        <mxCell id="q6Or9opQEkFWkcZ5Y_8q-20" value="paging" style="html=1;verticalAlign=bottom;endArrow=block;" edge="1" parent="1">
          <mxGeometry x="0.0348" y="-3" width="80" relative="1" as="geometry">
            <mxPoint x="409" y="287" as="sourcePoint" />
            <mxPoint x="179" y="287" as="targetPoint" />
            <mxPoint as="offset" />
          </mxGeometry>
        </mxCell>
        <mxCell id="q6Or9opQEkFWkcZ5Y_8q-21" value="paging" style="html=1;verticalAlign=bottom;endArrow=block;" edge="1" parent="1">
          <mxGeometry x="0.0348" y="-3" width="80" relative="1" as="geometry">
            <mxPoint x="647" y="417" as="sourcePoint" />
            <mxPoint x="417" y="417" as="targetPoint" />
            <mxPoint as="offset" />
          </mxGeometry>
        </mxCell>
        <mxCell id="q6Or9opQEkFWkcZ5Y_8q-22" value="paging" style="html=1;verticalAlign=bottom;endArrow=block;" edge="1" parent="1">
          <mxGeometry x="0.0348" y="-3" width="80" relative="1" as="geometry">
            <mxPoint x="407" y="417" as="sourcePoint" />
            <mxPoint x="177" y="417" as="targetPoint" />
            <mxPoint as="offset" />
          </mxGeometry>
        </mxCell>
        <mxCell id="q6Or9opQEkFWkcZ5Y_8q-23" value="paging" style="html=1;verticalAlign=bottom;endArrow=block;" edge="1" parent="1">
          <mxGeometry x="0.0348" y="-3" width="80" relative="1" as="geometry">
            <mxPoint x="648" y="519" as="sourcePoint" />
            <mxPoint x="418" y="519" as="targetPoint" />
            <mxPoint as="offset" />
          </mxGeometry>
        </mxCell>
        <mxCell id="q6Or9opQEkFWkcZ5Y_8q-24" value="paging" style="html=1;verticalAlign=bottom;endArrow=block;" edge="1" parent="1">
          <mxGeometry x="0.0348" y="-3" width="80" relative="1" as="geometry">
            <mxPoint x="407" y="519" as="sourcePoint" />
            <mxPoint x="177" y="519" as="targetPoint" />
            <mxPoint as="offset" />
          </mxGeometry>
        </mxCell>
      </root>
    </mxGraphModel>
  </diagram>
</mxfile>
